<?xml version="1.0" standalone="no"?><!DOCTYPE svg PUBLIC "-//W3C//DTD SVG 1.1//EN" "http://www.w3.org/Graphics/SVG/1.1/DTD/svg11.dtd"><svg t="1612764214055" class="icon" viewBox="0 0 1024 1024" version="1.1" xmlns="http://www.w3.org/2000/svg" p-id="7461" xmlns:xlink="http://www.w3.org/1999/xlink" width="200" height="200"><defs><style type="text/css"></style></defs><path d="M1011.952941 528.143059c0-84.811294-52.525176-159.081412-131.915294-187.873883 3.553882-17.709176 5.421176-35.719529 5.421177-54.39247A286.177882 286.177882 0 0 0 599.582118 0c-92.039529 0-177.694118 44.272941-231.484236 118.603294a151.792941 151.792941 0 0 0-235.279058 172.694588A201.848471 201.848471 0 0 0 0 479.653647c0 85.413647 52.826353 159.744 132.216471 188.536471a285.696 285.696 0 0 0 280.214588 339.666823 283.467294 283.467294 0 0 0 231.424-119.265882c26.503529 20.841412 59.211294 32.225882 92.943059 32.225882a151.792941 151.792941 0 0 0 142.336-204.619294A201.185882 201.185882 0 0 0 1011.952941 528.143059" fill="#FFFFFF" p-id="7462"></path><path d="M397.793882 434.176l221.424942 100.894118 223.232-195.764706A249.976471 249.976471 0 0 0 597.353412 40.478118c-82.522353 0-159.382588 40.478118-205.824 108.423529l-37.345883 192.933647 43.610353 92.340706z" fill="#FFD00A" p-id="7463"></path><path d="M168.538353 668.491294a259.915294 259.915294 0 0 0-4.758588 49.995294 250.578824 250.578824 0 0 0 250.518588 250.458353c83.124706 0 160.286118-40.779294 206.787765-109.748706l36.98447-192.271059-49.332706-93.906823-222.268235-101.195294-217.931294 196.668235z" fill="#20B9AF" p-id="7464"></path><path d="M167.273412 285.515294l151.792941 35.779765 33.189647-172.634353a119.627294 119.627294 0 0 0-192.271059 94.870588c0 14.817882 2.590118 28.732235 7.288471 42.044235" fill="#EE5096" p-id="7465"></path><path d="M154.021647 321.656471A169.140706 169.140706 0 0 0 39.152941 480.677647c0 69.571765 43.008 131.915294 107.52 156.190118l212.811294-192.572236-39.152941-83.486117-166.369882-39.152941z" fill="#12A5DF" p-id="7466"></path><path d="M659.998118 859.196235c20.841412 16.143059 46.140235 24.696471 72.402823 24.696471a119.627294 119.627294 0 0 0 119.506824-119.567059c0-14.516706-2.529882-28.431059-7.228236-41.743059l-151.491764-35.418353-33.189647 172.032z" fill="#90C640" p-id="7467"></path><path d="M690.959059 647.649882l166.972235 38.912a169.140706 169.140706 0 0 0 115.109647-159.081411 167.092706 167.092706 0 0 0-107.821176-156.190118L646.987294 562.597647l43.971765 85.052235z" fill="#05799F" p-id="7468"></path></svg>