<?xml version="1.0" standalone="no"?><!DOCTYPE svg PUBLIC "-//W3C//DTD SVG 1.1//EN" "http://www.w3.org/Graphics/SVG/1.1/DTD/svg11.dtd"><svg t="1612764191706" class="icon" viewBox="0 0 1024 1024" version="1.1" xmlns="http://www.w3.org/2000/svg" p-id="6254" xmlns:xlink="http://www.w3.org/1999/xlink" width="200" height="200"><defs><style type="text/css"></style></defs><path d="M1023.577344 284.16c0 78.848 0 78.848-75.776 108.544-135.68 53.76-270.848 107.52-406.528 162.304-18.432 7.168-35.328 9.216-54.784 1.024C333.401344 495.104 181.337344 434.176 28.249344 374.784 6.745344 366.592-0.934656 355.328 0.089344 333.312c1.024-35.328 1.024-70.144 0-106.496 0-15.36 5.12-23.552 19.456-30.208C178.265344 134.144 336.473344 71.68 494.681344 8.704c13.312-5.12 25.088-4.096 38.4 1.024 156.16 61.952 312.32 124.416 468.48 185.344 16.384 6.144 22.528 16.384 21.504 34.304-0.512 18.432 0.512 36.864 0.512 54.784z" fill="#E7384C" p-id="6255"></path><path d="M0.089344 438.272c124.416 49.664 245.248 97.28 366.08 144.896 39.424 15.36 79.872 31.232 118.784 47.616 17.408 7.168 34.304 7.168 51.712 0 155.136-61.952 310.272-124.416 465.408-185.344 5.12-2.048 10.24-4.096 18.432-7.168v141.824c0 10.24-7.168 14.336-15.36 17.408-159.232 65.024-321.536 129.536-483.328 193.536-10.24 4.096-18.432 1.024-27.136-2.048-157.184-63.488-315.392-126.464-473.6-188.416-15.36-6.144-21.504-14.336-20.48-31.232 0.512-42.496-0.512-84.48-0.512-131.072z" fill="#E7384C" p-id="6256"></path><path d="M1023.577344 751.616c0 73.216 0 73.216-67.072 100.352-139.776 54.784-278.528 110.592-417.792 166.4-17.408 7.168-34.304 7.168-51.712 0-153.088-61.952-306.176-122.88-460.288-183.296-17.408-7.168-26.112-15.36-25.088-35.328 1.024-32.256 1.024-65.024 0-97.28-1.024-23.552 2.048-31.232 28.16-20.48 154.112 61.952 308.224 122.88 463.36 185.344 14.336 5.12 26.112 5.12 40.448 0 155.136-61.952 310.272-122.88 465.408-186.368 18.432-7.168 28.16-7.168 25.088 16.384-1.536 16.896-0.512 35.84-0.512 54.272z" fill="#E7384C" p-id="6257"></path><path d="M258.649344 265.216c-33.28 0-67.072-3.072-97.28-20.48-28.16-16.384-28.16-40.448 1.024-52.736 61.952-27.136 125.44-26.112 185.344 4.096 30.208 14.336 28.16 37.376-1.024 52.736-26.624 15.36-57.856 16.384-88.064 16.384z" fill="#FEFEFE" p-id="6258"></path><path d="M884.825344 218.624c-42.496 16.384-77.824 31.232-112.64 45.568-6.144 2.048-11.264 6.144-18.432 3.072-43.52-17.408-87.04-36.352-136.704-56.832 43.52-16.384 80.896-31.232 118.784-46.592 6.144-2.048 10.24-2.048 15.36 0 41.472 18.944 83.968 35.328 133.632 54.784zM583.769344 285.184c-16.384 32.256-32.256 58.88-45.568 86.016-4.096 8.192-9.216 10.24-17.408 7.168-52.736-21.504-106.496-43.52-158.208-70.144 71.168-7.68 142.336-14.848 221.184-23.04z" fill="#FEFDFD" p-id="6259"></path><path d="M371.801344 121.344c8.192-1.024 16.384-2.048 25.088-4.096 39.424-8.192 39.424-8.192 23.552-48.64 28.16 9.216 53.76 25.088 80.896 27.136 27.136 2.048 55.808-9.216 92.16-16.384-15.36 14.336-27.136 25.088-41.472 38.4 19.456 7.168 36.352 14.336 53.76 21.504-7.168 14.336-18.432 5.12-29.184 5.12-33.28-3.072-66.048-4.096-90.112 27.136-4.096 6.144-13.312 10.24-16.384-1.024-12.288-43.52-49.664-34.304-80.896-38.4-7.168-1.024-14.336 0-22.528-1.024-3.072-5.632 0-8.704 5.12-9.728z" fill="#FEFCFC" p-id="6260"></path><path d="M576.601344 144.384c9.216-3.072 20.48 2.048 29.184-5.12 4.096 2.048 9.216 3.072 14.336 5.12-14.848 4.096-29.184 7.168-43.52 0z" fill="#FADCDF" p-id="6261"></path><path d="M371.801344 121.344c-2.048 3.072-3.072 6.144-5.12 9.216h-21.504c8.704-6.144 17.408-10.24 26.624-9.216z" fill="#F4AAB2" p-id="6262"></path></svg>