<?xml version="1.0" standalone="no"?><!DOCTYPE svg PUBLIC "-//W3C//DTD SVG 1.1//EN" "http://www.w3.org/Graphics/SVG/1.1/DTD/svg11.dtd"><svg t="1613718138570" class="icon" viewBox="0 0 1024 1024" version="1.1" xmlns="http://www.w3.org/2000/svg" p-id="2162" xmlns:xlink="http://www.w3.org/1999/xlink" width="200" height="200"><defs><style type="text/css"></style></defs><path d="M725.942857 170.057143c-29.257143 20.114286-56.685714 38.4-87.771428 62.171428-23.771429 18.285714-65.828571 45.714286-67.657143 78.628572-3.657143 53.028571 78.628571 102.4 34.742857 170.057143-16.457143 25.6-43.885714 36.571429-78.628572 53.028571-3.657143-7.314286 9.142857-14.628571 14.628572-21.942857 54.857143-78.628571-56.685714-104.228571-42.057143-201.142857 14.628571-96.914286 124.342857-128 226.742857-140.8z" fill="#FF1515" p-id="2163"></path><path d="M380.342857 491.885714c-25.6 10.971429-69.485714 14.628571-87.771428 40.228572 18.285714 14.628571 45.714286 14.628571 71.314285 14.628571 106.057143 5.485714 235.885714-3.657143 325.485715-20.114286 3.657143 7.314286-12.8 18.285714-21.942858 23.771429-56.685714 42.057143-232.228571 53.028571-352.914285 45.714286-40.228571-3.657143-133.485714-12.8-133.485715-49.371429-1.828571-43.885714 113.371429-49.371429 159.085715-53.028571 9.142857 0 25.6-3.657143 40.228571-1.828572zM327.314286 603.428571c10.971429 1.828571-9.142857 9.142857-5.485715 16.457143 42.057143 42.057143 175.542857 29.257143 241.371429 16.457143 14.628571-3.657143 27.428571-10.971429 38.4-9.142857 23.771429 1.828571 40.228571 31.085714 62.171429 34.742857-74.971429 34.742857-221.257143 51.2-329.142858 29.257143-27.428571-5.485714-74.971429-20.114286-76.8-42.057143-1.828571-27.428571 47.542857-40.228571 69.485715-45.714286z m32.914285 102.4c7.314286 1.828571-3.657143 7.314286-1.828571 9.142858 21.942857 40.228571 135.314286 25.6 192 12.8 10.971429-3.657143 21.942857-10.971429 32.914286-9.142858 29.257143 1.828571 40.228571 32.914286 64 38.4-80.457143 47.542857-272.457143 67.657143-351.085715 7.314286-5.485714-45.714286 31.085714-49.371429 64-58.514286z" fill="#2365C4" p-id="2164"></path><path d="M288.914286 780.8c-23.771429 5.485714-84.114286-1.828571-87.771429 29.257143-1.828571 12.8 20.114286 27.428571 34.742857 32.914286 80.457143 31.085714 243.2 34.742857 378.514286 20.114285 62.171429-7.314286 179.2-27.428571 164.571429-91.428571 18.285714 1.828571 34.742857 14.628571 38.4 32.914286 7.314286 69.485714-149.942857 96.914286-213.942858 104.228571-138.971429 14.628571-310.857143 12.8-418.742857-23.771429-34.742857-10.971429-76.8-34.742857-74.971428-67.657142 1.828571-56.685714 137.142857-73.142857 179.2-36.571429z" fill="#2365C4" p-id="2165"></path><path d="M499.2 987.428571c-93.257143-10.971429-182.857143-23.771429-257.828571-56.685714 197.485714 47.542857 486.4 43.885714 625.371428-56.685714 7.314286-5.485714 14.628571-16.457143 23.771429-14.628572-34.742857 104.228571-168.228571 111.542857-283.428572 129.828572 0-1.828571-107.885714-1.828571-107.885714-1.828572z" fill="#2365C4" p-id="2166"></path><path d="M563.2 0c16.457143 16.457143 29.257143 47.542857 29.257143 78.628571 0 96.914286-102.4 151.771429-151.771429 215.771429-10.971429 14.628571-25.6 36.571429-25.6 60.342857 0 53.028571 54.857143 111.542857 74.971429 153.6-32.914286-21.942857-74.971429-53.028571-106.057143-87.771428-29.257143-36.571429-60.342857-93.257143-32.914286-144.457143 40.228571-74.971429 162.742857-120.685714 206.628572-201.142857 10.971429-20.114286 20.114286-51.2 5.485714-74.971429z" fill="#FF1515" p-id="2167"></path><path d="M711.314286 517.485714c51.2-43.885714 138.971429-27.428571 140.8 47.542857 3.657143 85.942857-89.6 135.314286-159.085715 138.971429 31.085714-29.257143 115.2-78.628571 100.571429-149.942857-7.314286-27.428571-42.057143-45.714286-82.285714-36.571429z" fill="#2365C4" p-id="2168"></path></svg>