<?xml version="1.0" standalone="no"?><!DOCTYPE svg PUBLIC "-//W3C//DTD SVG 1.1//EN" "http://www.w3.org/Graphics/SVG/1.1/DTD/svg11.dtd"><svg t="1613718375843" class="icon" viewBox="0 0 1024 1024" version="1.1" xmlns="http://www.w3.org/2000/svg" p-id="10917" xmlns:xlink="http://www.w3.org/1999/xlink" width="200" height="200"><defs><style type="text/css"></style></defs><path d="M989.3888 364.7488L512 124.29312V0l477.3888 253.89056v110.85824zM989.3888 592.60928L512 369.09056v-124.29312l477.3888 234.496v113.31584z" fill="#F8B60E" p-id="10918"></path><path d="M989.3888 705.51552L512 489.5744 147.88608 654.27456v-114.70848L512 369.09056v-124.29312L147.88608 423.64928v-115.95776L512 124.29312V0L34.6112 253.89056V818.95424L512 613.86752l112.55808 48.35328L147.2512 867.34848l124.66176 53.5552 477.55264-205.0048 115.07712 49.41824-477.30688 205.12768L511.8976 1024 989.3888 819.01568l-0.24576-0.16384 0.24576 0.1024v-113.43872z" fill="#003378" p-id="10919"></path></svg>